<svg width="1920" height="1080" viewBox="0 0 1920 1080" fill="none" xmlns="http://www.w3.org/2000/svg">
<g clip-path="url(#clip0_447_169)">
<rect width="1920" height="1080" fill="white"/>
<rect width="1920" height="1080" fill="url(#paint0_linear_447_169)" fill-opacity="0.06"/>
<path d="M653.928 327.716L670.09 291.527L699.889 304.682L713.634 349.569L699.889 384.415L670.09 375.717L653.928 327.716ZM670.68 293.191L655.109 328.092L670.68 374.428L699.459 382.912L712.775 349.246L699.459 305.809L670.68 293.191Z" fill="#E8F2FF"/>
<path d="M600.343 354.562L619.618 314.346L654.841 327.286L670.948 375.234L654.841 413.731L619.618 406.053L600.343 354.562ZM620.209 316.118L601.685 354.938L620.209 404.604L654.196 412.121L669.821 374.912L654.196 328.521L620.209 316.118Z" fill="#E8F2FF"/>
<path d="M600.343 447.504L619.618 404.443L654.841 412.228L670.948 457.813L654.841 498.673L619.618 496.15L600.343 447.504ZM620.209 406.215L601.685 447.773L620.209 494.754L654.196 497.277L669.821 457.76L654.196 413.678L620.209 406.215Z" fill="#E8F2FF"/>
<path d="M600.343 540.5L619.618 494.646L654.841 497.277L670.948 540.5L654.841 583.723L619.618 586.354L600.343 540.5ZM620.209 496.257L601.685 540.5L620.209 584.743L654.196 582.273L669.821 540.446L654.196 498.62L620.209 496.257Z" fill="#E8F2FF"/>
<path d="M535.858 284.44L559.16 242.613L601.363 261.245L620.531 315.474L601.363 355.69L559.16 343.394L535.858 284.44ZM559.912 244.654L537.522 285.03L559.912 341.837L600.665 353.811L619.242 314.937L600.665 262.48L559.912 244.654Z" fill="#E8F2FF"/>
<path d="M535.858 386.885L559.16 341.622L601.363 354.026L620.531 405.463L601.363 448.471L559.16 442.35L535.858 386.885ZM559.912 343.556L537.522 387.208L559.912 440.739L600.665 446.753L619.242 405.195L600.665 355.475L559.912 343.556Z" fill="#E8F2FF"/>
<path d="M535.858 489.277L559.16 440.631L601.363 446.86L620.531 495.505L601.363 541.305L559.16 541.359L535.858 489.277ZM559.912 442.457L537.522 489.384L559.912 539.641L600.665 539.694L619.242 495.398L600.665 448.363L559.912 442.457Z" fill="#E8F2FF"/>
<path d="M535.858 591.723L559.16 539.641L601.363 539.695L620.531 585.495L601.363 634.14L559.16 640.369L535.858 591.723ZM559.912 541.359L537.522 591.616L559.912 638.543L600.665 632.637L619.242 585.602L600.665 541.306L559.912 541.359Z" fill="#E8F2FF"/>
<path d="M456.768 312.467L485.493 265.056L537.038 284.01L560.234 342.803L537.038 388.013L485.493 376.737L456.768 312.467ZM486.46 267.311L458.808 313.058L486.46 375.019L536.233 386.026L558.73 342.32L536.233 285.46L486.46 267.311Z" fill="#E8F2FF"/>
<path d="M456.768 426.511L485.494 374.858L537.039 386.241L560.234 441.652L537.039 490.244L485.494 486.539L456.768 426.511ZM486.46 376.952L458.808 426.779L486.46 484.713L536.233 488.418L558.73 441.437L536.233 387.852L486.46 376.952Z" fill="#E8F2FF"/>
<path d="M456.768 540.5L485.493 484.66L537.038 488.525L560.234 540.554L537.038 592.582L485.493 596.448L456.768 540.5ZM486.46 486.646L458.808 540.5L486.46 594.354L536.233 590.756L558.73 540.446L536.233 490.136L486.46 486.646Z" fill="#E8F2FF"/>
<path d="M357.546 219.149L393.895 169.806L458.273 198.209L486.891 266.56L458.273 313.971L393.895 295.178L357.546 219.149ZM395.077 172.437L360.123 220.062L395.077 293.353L457.253 311.662L485.012 265.862L457.253 199.712L395.077 172.437Z" fill="#E8F2FF"/>
<path d="M357.546 347.69L393.895 293.031L458.273 311.984L486.891 376.147L458.273 427.745L393.895 418.403L357.546 347.69ZM395.077 295.5L360.123 348.28L395.077 416.416L457.253 425.598L485.012 375.717L457.253 313.648L395.077 295.5Z" fill="#E8F2FF"/>
<path d="M357.546 476.23L393.895 416.202L458.273 425.705L486.891 485.68L458.273 541.467L393.895 541.574L357.546 476.23ZM395.077 418.51L360.123 476.391L395.077 539.426L457.253 539.48L485.012 485.519L457.253 427.531L395.077 418.51Z" fill="#E8F2FF"/>
<path d="M357.546 604.77L393.895 539.426L458.273 539.533L486.891 595.32L458.273 655.295L393.895 664.798L357.546 604.77ZM395.077 541.574L360.123 604.609L395.077 662.49L457.253 653.469L485.012 595.481L457.253 541.52L395.077 541.574Z" fill="#E8F2FF"/>
<path d="M229.273 245.835L276.791 188.33L359.478 218.72L395.72 294.588L359.478 349.247L276.791 331.206L229.273 245.835ZM278.294 191.336L232.655 246.801L278.294 329.058L358.135 346.723L393.25 293.89L358.135 220.492L278.294 191.336Z" fill="#E8F2FF"/>
<path d="M229.273 393.167L276.791 328.736L359.478 346.992L395.72 417.544L359.478 477.465L276.791 471.505L229.273 393.167ZM278.294 331.475L232.655 393.651L278.294 469.196L358.135 475.156L393.25 417.168L358.135 348.925L278.294 331.475Z" fill="#E8F2FF"/>
<path d="M229.273 540.5L276.791 469.089L359.478 475.263L395.72 540.5L359.478 605.736L276.791 611.911L229.273 540.5ZM278.294 471.666L232.655 540.5L278.294 609.334L358.135 603.589L393.25 540.5L358.135 477.411L278.294 471.666Z" fill="#E8F2FF"/>
<path d="M229.273 687.833L276.791 609.441L359.478 603.481L395.72 663.402L359.478 734.008L276.791 752.264L229.273 687.833ZM278.294 611.804L232.655 687.349L278.294 749.526L358.135 732.075L393.25 663.832L358.135 605.844L278.294 611.804Z" fill="#E8F2FF"/>
<path d="M229.273 835.165L276.791 749.848L359.478 731.807L395.72 786.466L359.478 862.334L276.791 892.724L229.273 835.165ZM278.294 751.942L232.655 834.199L278.294 889.663L358.135 860.508L393.25 787.11L358.135 734.277L278.294 751.942Z" fill="#E8F2FF"/>
<path d="M57.1343 109.133L121.78 49.856L231.85 98.3942L279.1 190.477L231.85 247.928L121.78 215.82L57.1343 109.133ZM123.821 53.5608L61.7519 110.797L123.821 213.511L230.132 244.814L275.986 189.296L230.132 100.166L123.821 53.5608Z" fill="#E8F2FF"/>
<path d="M57.1343 281.647L121.78 212.867L231.85 245.244L279.1 330.4L231.85 394.778L121.78 378.777L57.1343 281.647ZM123.821 216.357L61.7519 282.667L123.821 376.307L230.132 392.039L275.986 329.81L230.132 247.391L123.821 216.357Z" fill="#E8F2FF"/>
<path d="M57.1343 454.216L121.78 375.985L231.85 392.254L279.1 470.485L231.85 541.789L121.78 541.95L57.1343 454.216ZM123.821 379.153L61.7519 454.592L123.821 539.104L230.132 539.265L275.986 470.324L230.132 394.617L123.821 379.153Z" fill="#E8F2FF"/>
<path d="M57.1343 626.784L121.727 539.104L231.797 539.265L279.046 610.569L231.797 688.799L121.727 705.068L57.1343 626.784ZM123.821 541.896L61.7519 626.408L123.821 701.846L230.132 686.383L275.986 610.676L230.132 541.789L123.821 541.896Z" fill="#E8F2FF"/>
<path d="M57.1343 799.353L121.78 702.169L231.85 686.168L279.1 750.546L231.85 835.703L121.78 868.079L57.1343 799.353ZM123.821 704.692L61.7519 798.333L123.821 864.697L230.132 833.662L275.986 751.244L230.132 689.014L123.821 704.692Z" fill="#E8F2FF"/>
<path d="M57.1343 971.921L121.78 865.287L231.85 833.179L279.1 890.63L231.85 982.713L121.78 1031.25L57.1343 971.921ZM123.821 867.489L61.7519 970.203L123.821 1027.44L230.132 980.834L275.986 891.704L230.132 836.186L123.821 867.489Z" fill="#E8F2FF"/>
<path d="M-186.147 124.113L-93.1515 52.3799L60.5707 108.865L124.841 215.23L60.6244 283.956L-93.1515 250.345L-186.147 124.113ZM-90.1984 56.8363L-179.436 126.1L-90.1984 247.606L58.2619 280.413L120.653 213.995L58.2619 111.012L-90.1984 56.8363Z" fill="#E8F2FF"/>
<path d="M-186.147 332.333L-93.0978 246.962L60.6244 280.949L124.841 377.865L60.5707 455.988L-93.1515 444.927L-186.147 332.333ZM-90.1984 250.989L-179.382 333.3L-90.1447 441.759L58.3156 452.82L120.707 377.274L58.2619 283.419L-90.1984 250.989Z" fill="#E8F2FF"/>
<path d="M-186.147 540.5L-93.1515 441.544L60.5707 452.981L124.841 540.5L60.5707 628.019L-93.1515 639.456L-186.147 540.5ZM-90.1984 445.142L-179.382 540.5L-90.1447 635.858L58.3156 625.173L120.707 540.5L58.2619 455.827L-90.1984 445.142Z" fill="#E8F2FF"/>
<path d="M-186.147 748.72L-93.1515 636.127L60.5707 625.066L124.841 703.135L60.6244 800.051L-93.1515 834.038L-186.147 748.72ZM-90.1984 639.241L-179.436 747.7L-90.1984 830.011L58.2619 797.581L120.653 703.726L58.2619 628.18L-90.1984 639.241Z" fill="#E8F2FF"/>
<path d="M-186.147 956.887L-93.1515 830.655L60.5707 797.044L124.841 865.77L60.5707 972.135L-93.1515 1028.62L-186.147 956.887ZM-90.1984 833.393L-179.382 954.9L-90.1447 1024.16L58.2619 969.988L120.653 867.005L58.2619 800.587L-90.1984 833.393Z" fill="#E8F2FF"/>
<path d="M-181.1 -83.6239L-200 -92V-88.3489L-184.483 -81.5299L-94.6012 53.5609L-184.483 122.824L-200 118.261V121.912L-181.1 127.388L-88.695 55.7086L-181.1 -83.6239Z" fill="#E8F2FF"/>
<path d="M-181.1 123.791L-200 118.261V121.912L-184.483 126.422L-94.6012 248.305L-184.483 330.777L-200 328.468V332.119L-181.1 334.857L-88.695 249.647L-181.1 123.791Z" fill="#E8F2FF"/>
<path d="M-181.1 331.26L-200 328.468V332.119L-184.483 334.374L-94.6012 443.101L-184.483 538.674H-200V542.326H-181.1L-88.695 443.531L-181.1 331.26Z" fill="#E8F2FF"/>
<path d="M-181.1 538.728L-200 538.674V542.326L-184.483 542.326L-94.6012 637.899L-184.483 746.626L-200 748.881V752.533L-181.1 749.741L-88.695 637.469L-181.1 538.728Z" fill="#E8F2FF"/>
<path d="M-181.1 746.143L-200 748.881V752.533L-184.483 750.277L-94.6012 832.696L-184.483 954.578L-200 959.142V962.793L-181.1 957.209L-88.695 831.407L-181.1 746.143Z" fill="#E8F2FF"/>
<path d="M-181.1 953.612L-200 959.142V962.793L-184.483 958.229L-94.6012 1027.49L-184.483 1162.53L-200 1169.35V1173L-181.1 1164.68L-88.695 1025.29L-181.1 953.612Z" fill="#E8F2FF"/>
<path d="M1266.71 326.716L1250.55 290.527L1220.75 303.682L1207 348.569L1220.75 383.415L1250.55 374.717L1266.71 326.716ZM1249.95 292.191L1265.53 327.092L1249.95 373.428L1221.18 381.912L1207.86 348.246L1221.18 304.809L1249.95 292.191Z" fill="#FFEBEC"/>
<path d="M1320.29 353.562L1301.02 313.346L1265.79 326.286L1249.69 374.234L1265.79 412.731L1301.02 405.053L1320.29 353.562ZM1300.43 315.118L1318.95 353.938L1300.43 403.604L1266.44 411.121L1250.81 373.912L1266.44 327.521L1300.43 315.118Z" fill="#FFEBEC"/>
<path d="M1320.29 446.504L1301.02 403.443L1265.79 411.228L1249.69 456.813L1265.79 497.673L1301.02 495.15L1320.29 446.504ZM1300.43 405.215L1318.95 446.773L1300.43 493.754L1266.44 496.277L1250.81 456.76L1266.44 412.678L1300.43 405.215Z" fill="#FFEBEC"/>
<path d="M1320.29 539.5L1301.02 493.646L1265.79 496.277L1249.69 539.5L1265.79 582.723L1301.02 585.354L1320.29 539.5ZM1300.43 495.257L1318.95 539.5L1300.43 583.743L1266.44 581.273L1250.81 539.446L1266.44 497.62L1300.43 495.257Z" fill="#FFEBEC"/>
<path d="M1384.78 283.44L1361.47 241.613L1319.27 260.245L1300.1 314.474L1319.27 354.69L1361.47 342.394L1384.78 283.44ZM1360.72 243.654L1383.11 284.03L1360.72 340.837L1319.97 352.811L1301.39 313.937L1319.97 261.48L1360.72 243.654Z" fill="#FFEBEC"/>
<path d="M1384.78 385.885L1361.47 340.622L1319.27 353.026L1300.1 404.463L1319.27 447.471L1361.47 441.35L1384.78 385.885ZM1360.72 342.556L1383.11 386.208L1360.72 439.739L1319.97 445.753L1301.39 404.195L1319.97 354.475L1360.72 342.556Z" fill="#FFEBEC"/>
<path d="M1384.78 488.277L1361.47 439.631L1319.27 445.86L1300.1 494.505L1319.27 540.305L1361.47 540.359L1384.78 488.277ZM1360.72 441.457L1383.11 488.384L1360.72 538.641L1319.97 538.694L1301.39 494.398L1319.97 447.363L1360.72 441.457Z" fill="#FFEBEC"/>
<path d="M1384.78 590.723L1361.47 538.641L1319.27 538.695L1300.1 584.495L1319.27 633.14L1361.47 639.369L1384.78 590.723ZM1360.72 540.359L1383.11 590.616L1360.72 637.543L1319.97 631.637L1301.39 584.602L1319.97 540.306L1360.72 540.359Z" fill="#FFEBEC"/>
<path d="M1463.87 311.467L1435.14 264.056L1383.6 283.01L1360.4 341.803L1383.6 387.013L1435.14 375.737L1463.87 311.467ZM1434.17 266.311L1461.83 312.058L1434.17 374.019L1384.4 385.026L1361.9 341.32L1384.4 284.46L1434.17 266.311Z" fill="#FFEBEC"/>
<path d="M1463.87 425.511L1435.14 373.858L1383.6 385.241L1360.4 440.652L1383.6 489.244L1435.14 485.539L1463.87 425.511ZM1434.17 375.952L1461.83 425.779L1434.17 483.713L1384.4 487.418L1361.9 440.437L1384.4 386.852L1434.17 375.952Z" fill="#FFEBEC"/>
<path d="M1463.87 539.5L1435.14 483.66L1383.6 487.525L1360.4 539.554L1383.6 591.582L1435.14 595.448L1463.87 539.5ZM1434.17 485.646L1461.83 539.5L1434.17 593.354L1384.4 589.756L1361.9 539.446L1384.4 489.136L1434.17 485.646Z" fill="#FFEBEC"/>
<path d="M1563.09 218.149L1526.74 168.806L1462.36 197.209L1433.74 265.56L1462.36 312.971L1526.74 294.178L1563.09 218.149ZM1525.56 171.437L1560.51 219.062L1525.56 292.353L1463.38 310.662L1435.62 264.862L1463.38 198.712L1525.56 171.437Z" fill="#FFEBEC"/>
<path d="M1563.09 346.69L1526.74 292.031L1462.36 310.984L1433.74 375.147L1462.36 426.745L1526.74 417.403L1563.09 346.69ZM1525.56 294.5L1560.51 347.28L1525.56 415.416L1463.38 424.598L1435.62 374.717L1463.38 312.648L1525.56 294.5Z" fill="#FFEBEC"/>
<path d="M1563.09 475.23L1526.74 415.202L1462.36 424.705L1433.74 484.68L1462.36 540.467L1526.74 540.574L1563.09 475.23ZM1525.56 417.51L1560.51 475.391L1525.56 538.426L1463.38 538.48L1435.62 484.519L1463.38 426.531L1525.56 417.51Z" fill="#FFEBEC"/>
<path d="M1563.09 603.77L1526.74 538.426L1462.36 538.533L1433.74 594.32L1462.36 654.295L1526.74 663.798L1563.09 603.77ZM1525.56 540.574L1560.51 603.609L1525.56 661.49L1463.38 652.469L1435.62 594.481L1463.38 540.52L1525.56 540.574Z" fill="#FFEBEC"/>
<path d="M1691.36 244.835L1643.84 187.33L1561.16 217.72L1524.91 293.588L1561.16 348.247L1643.84 330.206L1691.36 244.835ZM1642.34 190.336L1687.98 245.801L1642.34 328.058L1562.5 345.723L1527.38 292.89L1562.5 219.492L1642.34 190.336Z" fill="#FFEBEC"/>
<path d="M1691.36 392.167L1643.84 327.736L1561.16 345.992L1524.91 416.544L1561.16 476.465L1643.84 470.505L1691.36 392.167ZM1642.34 330.475L1687.98 392.651L1642.34 468.196L1562.5 474.156L1527.38 416.168L1562.5 347.925L1642.34 330.475Z" fill="#FFEBEC"/>
<path d="M1691.36 539.5L1643.84 468.089L1561.16 474.263L1524.91 539.5L1561.16 604.736L1643.84 610.911L1691.36 539.5ZM1642.34 470.666L1687.98 539.5L1642.34 608.334L1562.5 602.589L1527.38 539.5L1562.5 476.411L1642.34 470.666Z" fill="#FFEBEC"/>
<path d="M1691.36 686.833L1643.84 608.441L1561.16 602.481L1524.91 662.402L1561.16 733.008L1643.84 751.264L1691.36 686.833ZM1642.34 610.804L1687.98 686.349L1642.34 748.526L1562.5 731.075L1527.38 662.832L1562.5 604.844L1642.34 610.804Z" fill="#FFEBEC"/>
<path d="M1691.36 834.165L1643.84 748.848L1561.16 730.807L1524.91 785.466L1561.16 861.334L1643.84 891.724L1691.36 834.165ZM1642.34 750.942L1687.98 833.199L1642.34 888.663L1562.5 859.508L1527.38 786.11L1562.5 733.277L1642.34 750.942Z" fill="#FFEBEC"/>
<path d="M1863.5 108.133L1798.85 48.856L1688.78 97.3942L1641.53 189.477L1688.78 246.928L1798.85 214.82L1863.5 108.133ZM1796.81 52.5608L1858.88 109.797L1796.81 212.511L1690.5 243.814L1644.65 188.296L1690.5 99.166L1796.81 52.5608Z" fill="#FFEBEC"/>
<path d="M1863.5 280.647L1798.85 211.867L1688.78 244.244L1641.53 329.4L1688.78 393.778L1798.85 377.777L1863.5 280.647ZM1796.81 215.357L1858.88 281.667L1796.81 375.307L1690.5 391.039L1644.65 328.81L1690.5 246.391L1796.81 215.357Z" fill="#FFEBEC"/>
<path d="M1863.5 453.216L1798.85 374.985L1688.78 391.254L1641.53 469.485L1688.78 540.789L1798.85 540.95L1863.5 453.216ZM1796.81 378.153L1858.88 453.592L1796.81 538.104L1690.5 538.265L1644.65 469.324L1690.5 393.617L1796.81 378.153Z" fill="#FFEBEC"/>
<path d="M1863.5 625.784L1798.91 538.104L1688.84 538.265L1641.59 609.569L1688.84 687.799L1798.91 704.068L1863.5 625.784ZM1796.81 540.896L1858.88 625.408L1796.81 700.846L1690.5 685.383L1644.65 609.676L1690.5 540.789L1796.81 540.896Z" fill="#FFEBEC"/>
<path d="M1863.5 798.353L1798.85 701.169L1688.78 685.168L1641.53 749.546L1688.78 834.703L1798.85 867.079L1863.5 798.353ZM1796.81 703.692L1858.88 797.333L1796.81 863.697L1690.5 832.662L1644.65 750.244L1690.5 688.014L1796.81 703.692Z" fill="#FFEBEC"/>
<path d="M1863.5 970.921L1798.85 864.287L1688.78 832.179L1641.53 889.63L1688.78 981.713L1798.85 1030.25L1863.5 970.921ZM1796.81 866.489L1858.88 969.203L1796.81 1026.44L1690.5 979.834L1644.65 890.704L1690.5 835.186L1796.81 866.489Z" fill="#FFEBEC"/>
<path d="M2106.78 123.113L2013.79 51.3799L1860.06 107.865L1795.79 214.23L1860.01 282.956L2013.79 249.345L2106.78 123.113ZM2010.83 55.8363L2100.07 125.1L2010.83 246.606L1862.37 279.413L1799.98 212.995L1862.37 110.012L2010.83 55.8363Z" fill="#FFEBEC"/>
<path d="M2106.78 331.333L2013.73 245.962L1860.01 279.949L1795.79 376.865L1860.06 454.988L2013.79 443.927L2106.78 331.333ZM2010.83 249.989L2100.02 332.3L2010.78 440.759L1862.32 451.82L1799.93 376.274L1862.37 282.419L2010.83 249.989Z" fill="#FFEBEC"/>
<path d="M2106.78 539.5L2013.79 440.544L1860.06 451.981L1795.79 539.5L1860.06 627.019L2013.79 638.456L2106.78 539.5ZM2010.83 444.142L2100.02 539.5L2010.78 634.858L1862.32 624.173L1799.93 539.5L1862.37 454.827L2010.83 444.142Z" fill="#FFEBEC"/>
<path d="M2106.78 747.72L2013.79 635.127L1860.06 624.066L1795.79 702.135L1860.01 799.051L2013.79 833.038L2106.78 747.72ZM2010.83 638.241L2100.07 746.7L2010.83 829.011L1862.37 796.581L1799.98 702.726L1862.37 627.18L2010.83 638.241Z" fill="#FFEBEC"/>
<path d="M2106.78 955.887L2013.79 829.655L1860.06 796.044L1795.79 864.77L1860.06 971.135L2013.79 1027.62L2106.78 955.887ZM2010.83 832.393L2100.02 953.9L2010.78 1023.16L1862.37 968.988L1799.98 866.005L1862.37 799.587L2010.83 832.393Z" fill="#FFEBEC"/>
<path d="M2101.73 -84.6239L2120.63 -93V-89.3489L2105.12 -82.5299L2015.24 52.5609L2105.12 121.824L2120.63 117.261V120.912L2101.73 126.388L2009.33 54.7086L2101.73 -84.6239Z" fill="#FFEBEC"/>
<path d="M2101.73 122.791L2120.63 117.261V120.912L2105.12 125.422L2015.24 247.305L2105.12 329.777L2120.63 327.468V331.119L2101.73 333.857L2009.33 248.647L2101.73 122.791Z" fill="#FFEBEC"/>
<path d="M2101.73 330.26L2120.63 327.468V331.119L2105.12 333.374L2015.24 442.101L2105.12 537.674H2120.63V541.326H2101.73L2009.33 442.531L2101.73 330.26Z" fill="#FFEBEC"/>
<path d="M2101.73 537.728L2120.63 537.674V541.326L2105.12 541.326L2015.24 636.899L2105.12 745.626L2120.63 747.881V751.533L2101.73 748.741L2009.33 636.469L2101.73 537.728Z" fill="#FFEBEC"/>
<path d="M2101.73 745.143L2120.63 747.881V751.533L2105.12 749.277L2015.24 831.696L2105.12 953.578L2120.63 958.142V961.793L2101.73 956.209L2009.33 830.407L2101.73 745.143Z" fill="#FFEBEC"/>
<path d="M2101.73 952.612L2120.63 958.142V961.793L2105.12 957.229L2015.24 1026.49L2105.12 1161.53L2120.63 1168.35V1172L2101.73 1163.68L2009.33 1024.29L2101.73 952.612Z" fill="#FFEBEC"/>
<path d="M1647.69 956.538C1646.85 923.563 1627.17 904.889 1607.32 902.036C1587.47 899.171 1581.07 905.4 1577.03 910.955C1573 916.511 1566.1 906.583 1564.25 902.036C1562.4 897.489 1558.05 889.115 1555.6 877.493C1554.13 868.725 1553.99 862.183 1553.98 861.174C1553.76 861.162 1553.56 861.116 1553.4 861.035L1547.16 861H1541.03C1540.85 861.104 1540.63 861.162 1540.37 861.162C1540.36 861.162 1540.36 861.162 1540.35 861.162C1540.36 862.96 1540.6 877.087 1545.24 893.557C1546.96 899.647 1549.07 905.307 1551.54 910.503C1551.54 910.515 1551.54 910.515 1551.54 910.515C1551.54 910.515 1557.52 924.769 1560.39 929.977C1563.25 935.197 1568.64 958.742 1562.74 973.043C1556.85 987.344 1548.11 987.344 1542.9 983.981C1537.68 980.617 1520.08 974.806 1502.22 992.436C1499.14 994.872 1496.02 997.957 1492.97 1001.88C1488.2 1007.99 1485.09 1014.49 1483.75 1021.18C1482.46 1027.58 1482.84 1034.12 1484.87 1040.09C1486.92 1046.13 1490.65 1051.61 1495.63 1055.96C1500.59 1060.29 1506.83 1063.5 1513.66 1065.26C1521.7 1067.34 1531.53 1067.04 1541.04 1066.76C1554.14 1066.38 1567.69 1065.95 1573.6 1071.69C1576.16 1074.18 1577.42 1077.98 1577.43 1083.49C1577.58 1083.43 1577.74 1083.39 1577.93 1083.39C1578.19 1083.39 1578.41 1083.45 1578.6 1083.57H1589.92C1590.09 1083.47 1590.3 1083.43 1590.53 1083.43C1590.73 1083.43 1590.91 1083.46 1591.06 1083.52C1591.04 1074.45 1588.37 1067.03 1583.09 1061.91C1573.03 1052.15 1556.56 1052.68 1540.63 1053.15C1531.67 1053.42 1523.22 1053.67 1517.06 1052.08C1507.49 1049.61 1500.46 1043.64 1497.76 1035.7C1496.27 1031.35 1496.23 1026.69 1497.55 1021.99C1497.84 1021.22 1504.5 1003.84 1517.66 1004.16C1517.66 1004.16 1518.84 1005.01 1518.67 1008.04C1518.5 1011.06 1520.01 1028.06 1536.33 1036.13C1552.65 1044.2 1582.26 1050.59 1609.35 1031.92C1636.43 1013.23 1648.54 989.513 1647.69 956.538Z" fill="url(#paint1_linear_447_169)"/>
<path d="M1458.32 1005.77C1457.79 985.488 1445.69 974 1433.48 972.245C1421.27 970.482 1417.33 974.314 1414.85 977.732C1412.36 981.149 1408.12 975.042 1406.98 972.245C1405.84 969.448 1403.17 964.296 1401.66 957.146C1400.76 951.752 1400.67 947.728 1400.66 947.107C1400.53 947.1 1400.41 947.071 1400.31 947.021L1396.47 947H1392.7C1392.59 947.064 1392.45 947.1 1392.29 947.1C1392.29 947.1 1392.29 947.1 1392.28 947.1C1392.29 948.206 1392.44 956.897 1395.29 967.029C1396.35 970.775 1397.64 974.257 1399.16 977.453C1399.16 977.46 1399.16 977.46 1399.16 977.46C1399.16 977.46 1402.85 986.23 1404.61 989.433C1406.37 992.644 1409.68 1007.13 1406.06 1015.93C1402.43 1024.72 1397.05 1024.72 1393.85 1022.66C1390.64 1020.59 1379.81 1017.01 1368.83 1027.86C1366.93 1029.36 1365.01 1031.25 1363.13 1033.66C1360.2 1037.43 1358.29 1041.42 1357.46 1045.54C1356.67 1049.48 1356.9 1053.5 1358.15 1057.18C1359.41 1060.89 1361.7 1064.26 1364.77 1066.94C1367.82 1069.6 1371.66 1071.57 1375.86 1072.66C1380.81 1073.94 1386.86 1073.75 1392.71 1073.58C1400.76 1073.34 1409.1 1073.08 1412.74 1076.61C1414.31 1078.15 1415.08 1080.48 1415.09 1083.87C1415.18 1083.83 1415.28 1083.81 1415.4 1083.81C1415.56 1083.81 1415.7 1083.85 1415.81 1083.92H1422.77C1422.88 1083.86 1423.01 1083.83 1423.15 1083.83C1423.27 1083.83 1423.38 1083.85 1423.47 1083.89C1423.47 1078.31 1421.82 1073.74 1418.57 1070.6C1412.39 1064.59 1402.25 1064.92 1392.45 1065.21C1386.94 1065.37 1381.74 1065.52 1377.95 1064.55C1372.06 1063.03 1367.74 1059.36 1366.08 1054.47C1365.16 1051.8 1365.14 1048.93 1365.95 1046.04C1366.13 1045.57 1370.22 1034.87 1378.32 1035.07C1378.32 1035.07 1379.05 1035.59 1378.94 1037.45C1378.84 1039.32 1379.77 1049.77 1389.81 1054.74C1399.85 1059.7 1418.07 1063.63 1434.73 1052.15C1451.39 1040.65 1458.84 1026.06 1458.32 1005.77Z" fill="url(#paint2_linear_447_169)"/>
<path d="M272.042 952.538C272.888 919.563 292.56 900.889 312.417 898.036C332.262 895.171 338.664 901.4 342.701 906.955C346.737 912.511 353.638 902.583 355.482 898.036C357.338 893.489 361.688 885.115 364.135 873.493C365.608 864.725 365.747 858.183 365.759 857.174C365.979 857.162 366.176 857.116 366.339 857.035L372.579 857H378.703C378.889 857.104 379.109 857.162 379.364 857.162C379.376 857.162 379.376 857.162 379.387 857.162C379.376 858.96 379.132 873.087 374.493 889.557C372.776 895.647 370.665 901.307 368.195 906.503C368.195 906.515 368.195 906.515 368.195 906.515C368.195 906.515 362.21 920.769 359.345 925.977C356.48 931.197 351.098 954.742 356.99 969.043C362.882 983.344 371.628 983.344 376.836 979.981C382.055 976.617 399.65 970.806 417.512 988.436C420.597 990.872 423.717 993.957 426.768 997.877C431.535 1003.99 434.643 1010.49 435.989 1017.18C437.276 1023.58 436.893 1030.12 434.864 1036.09C432.811 1042.13 429.088 1047.61 424.1 1051.96C419.147 1056.29 412.907 1059.5 406.076 1061.26C398.038 1063.34 388.202 1063.04 378.691 1062.76C365.596 1062.38 352.049 1061.95 346.134 1067.69C343.571 1070.18 342.318 1073.98 342.306 1079.49C342.156 1079.43 341.993 1079.39 341.808 1079.39C341.541 1079.39 341.32 1079.45 341.135 1079.57H329.815C329.641 1079.47 329.432 1079.43 329.2 1079.43C329.003 1079.43 328.829 1079.46 328.678 1079.52C328.69 1070.45 331.369 1063.03 336.646 1057.91C346.702 1048.15 363.172 1048.68 379.109 1049.15C388.063 1049.42 396.519 1049.67 402.677 1048.08C412.246 1045.61 419.275 1039.64 421.978 1031.7C423.462 1027.35 423.509 1022.69 422.186 1017.99C421.896 1017.22 415.239 999.837 402.074 1000.16C402.074 1000.16 400.891 1001.01 401.065 1004.04C401.239 1007.06 399.72 1024.06 383.4 1032.13C367.081 1040.2 337.47 1046.59 310.387 1027.92C283.304 1009.23 271.195 985.513 272.042 952.538Z" fill="url(#paint3_linear_447_169)"/>
<path d="M461.419 1001.77C461.94 981.488 474.041 970 486.257 968.245C498.465 966.482 502.404 970.314 504.887 973.732C507.37 977.149 511.615 971.042 512.75 968.245C513.891 965.448 516.567 960.296 518.073 953.146C518.979 947.752 519.064 943.728 519.072 943.107C519.207 943.1 519.328 943.071 519.428 943.021L523.267 943H527.035C527.149 943.064 527.284 943.1 527.441 943.1C527.448 943.1 527.448 943.1 527.456 943.1C527.448 944.206 527.299 952.897 524.444 963.029C523.388 966.775 522.09 970.257 520.57 973.453C520.57 973.46 520.57 973.46 520.57 973.46C520.57 973.46 516.888 982.23 515.126 985.433C513.363 988.644 510.053 1003.13 513.677 1011.93C517.302 1020.72 522.682 1020.72 525.886 1018.66C529.097 1016.59 539.921 1013.01 550.909 1023.86C552.807 1025.36 554.727 1027.25 556.603 1029.66C559.536 1033.43 561.448 1037.42 562.276 1041.54C563.068 1045.48 562.832 1049.5 561.584 1053.18C560.321 1056.89 558.03 1060.26 554.962 1062.94C551.915 1065.6 548.076 1067.57 543.874 1068.66C538.929 1069.94 532.878 1069.75 527.027 1069.58C518.972 1069.34 510.638 1069.08 506.999 1072.61C505.422 1074.15 504.651 1076.48 504.644 1079.87C504.551 1079.83 504.451 1079.81 504.337 1079.81C504.173 1079.81 504.038 1079.85 503.923 1079.92H496.959C496.852 1079.86 496.724 1079.83 496.581 1079.83C496.46 1079.83 496.353 1079.85 496.26 1079.89C496.267 1074.31 497.916 1069.74 501.162 1066.6C507.348 1060.59 517.48 1060.92 527.284 1061.21C532.793 1061.37 537.994 1061.52 541.783 1060.55C547.67 1059.03 551.994 1055.36 553.656 1050.47C554.57 1047.8 554.598 1044.93 553.785 1042.04C553.606 1041.57 549.511 1030.87 541.412 1031.07C541.412 1031.07 540.684 1031.59 540.791 1033.45C540.898 1035.32 539.964 1045.77 529.924 1050.74C519.885 1055.7 501.669 1059.63 485.008 1048.15C468.347 1036.65 460.898 1022.06 461.419 1001.77Z" fill="url(#paint4_linear_447_169)"/>
</g>
<defs>
<linearGradient id="paint0_linear_447_169" x1="-29" y1="5.35477e-05" x2="1920" y2="1080" gradientUnits="userSpaceOnUse">
<stop stop-color="#15478C"/>
<stop offset="1" stop-color="#C82129"/>
</linearGradient>
<linearGradient id="paint1_linear_447_169" x1="1482.99" y1="972.272" x2="1647.74" y2="972.272" gradientUnits="userSpaceOnUse">
<stop stop-color="#FFEDDF"/>
<stop offset="0.9995" stop-color="#FFE4ED"/>
</linearGradient>
<linearGradient id="paint2_linear_447_169" x1="1356.99" y1="1015.45" x2="1458.34" y2="1015.45" gradientUnits="userSpaceOnUse">
<stop stop-color="#FFEDDF"/>
<stop offset="0.9995" stop-color="#FFE4ED"/>
</linearGradient>
<linearGradient id="paint3_linear_447_169" x1="436.745" y1="968.272" x2="271.996" y2="968.272" gradientUnits="userSpaceOnUse">
<stop stop-color="#FFEDDF"/>
<stop offset="0.9995" stop-color="#FFE4ED"/>
</linearGradient>
<linearGradient id="paint4_linear_447_169" x1="562.741" y1="1011.45" x2="461.39" y2="1011.45" gradientUnits="userSpaceOnUse">
<stop stop-color="#FFEDDF"/>
<stop offset="0.9995" stop-color="#FFE4ED"/>
</linearGradient>
<clipPath id="clip0_447_169">
<rect width="1920" height="1080" fill="white"/>
</clipPath>
</defs>
</svg>
